<svg xmlns="http://www.w3.org/2000/svg" viewBox="0 0 512 512" width="512" height="512">
  <title>вернистраховку.рф</title>
  <defs>
    <linearGradient id="brandGradient" x1="0%" y1="0%" x2="100%" y2="0%">
      <stop offset="0%" stop-color="#10B981"/>
      <stop offset="100%" stop-color="#2563EB"/>
    </linearGradient>
  </defs>
  
  <!-- Венок -->
  <g fill="none" stroke="url(#brandGradient)" stroke-width="20" stroke-linecap="round" stroke-linejoin="round">
    <path d="M140 380c-44-52-68-108-68-170 0-70 30-130 84-180"/>
    <path d="M372 380c44-52 68-108 68-170 0-70-30-130-84-180"/>
  </g>
  <g fill="url(#brandGradient)">
    <!-- листья слева -->
    <path d="M136 148c-24 10-46 8-68-8 12-30 36-48 72-54 6 24 4 44-4 62z"/>
    <path d="M124 204c-22 10-42 8-60-6 10-28 32-44 62-50 6 22 4 40-2 56z"/>
    <!-- листья справа -->
    <path d="M376 148c24 10 46 8 68-8-12-30-36-48-72-54-6 24-4 44 4 62z"/>
    <path d="M388 204c22 10 42 8 60-6-10-28-32-44-62-50-6 22-4 40 2 56z"/>
  </g>
  
  <!-- Весы -->
  <g fill="none" stroke="#111827" stroke-width="16" stroke-linecap="round" stroke-linejoin="round">
    <path d="M256 100v228"/>
    <path d="M212 364h88"/>
    <path d="M176 152c40-34 200-34 240 0"/>
    <path d="M204 164v88"/>
    <path d="M308 164v88"/>
    <path d="M170 264c22 16 46 16 68 0"/>
    <path d="M274 264c22 16 46 16 68 0"/>
  </g>
</svg>

