<?xml version="1.0" standalone="no"?>
<!DOCTYPE svg PUBLIC "-//W3C//DTD SVG 20010904//EN"
 "http://www.w3.org/TR/2001/REC-SVG-20010904/DTD/svg10.dtd">
<svg version="1.0" xmlns="http://www.w3.org/2000/svg"
 width="600.000000pt" height="480.000000pt" viewBox="0 0 600.000000 480.000000"
 preserveAspectRatio="xMidYMid meet">

<g transform="translate(0.000000,480.000000) scale(0.100000,-0.100000)"
fill="#000000" stroke="none">
<path d="M2950 3671 c-25 -47 3 -101 52 -101 44 0 65 72 30 103 -25 23 -69 22
-82 -2z"/>
<path d="M2839 3671 c-41 -13 -70 -30 -147 -89 -60 -45 -82 -56 -122 -60 -37
-3 -57 0 -77 13 -27 18 -27 18 -5 26 24 9 30 47 10 67 -15 15 -61 15 -76 0 -7
-7 -12 -31 -12 -54 0 -102 116 -152 247 -108 26 9 81 38 121 65 41 27 89 51
108 55 26 5 34 11 34 28 0 11 3 31 6 44 6 20 3 22 -27 21 -19 0 -46 -4 -60 -8z"/>
<path d="M3064 3639 c3 -40 5 -42 55 -59 28 -9 75 -33 104 -53 68 -47 109 -63
179 -72 66 -8 115 5 147 39 28 30 42 81 31 111 -11 28 -55 43 -79 28 -23 -15
-26 -54 -5 -70 24 -18 8 -33 -44 -40 -59 -8 -80 0 -152 58 -78 63 -152 99
-202 99 l-38 0 4 -41z"/>
<path d="M2041 3560 c-22 -104 -9 -198 36 -258 39 -52 113 -91 113 -60 0 6
-18 50 -39 97 -55 121 -61 152 -9 51 l43 -85 3 57 c2 41 -3 71 -16 100 -20 44
-99 148 -113 148 -4 0 -12 -23 -18 -50z"/>
<path d="M3894 3562 c-23 -26 -50 -66 -61 -87 -23 -45 -39 -155 -23 -155 5 0
23 26 39 58 39 74 39 59 2 -26 -55 -125 -51 -147 20 -99 76 51 109 151 91 271
-6 38 -14 72 -19 77 -5 5 -27 -13 -49 -39z"/>
<path d="M2934 3519 c-67 -19 -113 -99 -66 -116 9 -4 20 -11 24 -17 12 -17 9
-716 -2 -757 -7 -24 -18 -39 -31 -42 -11 -3 -23 -15 -26 -26 -5 -19 -13 -21
-72 -21 -84 0 -115 -15 -119 -58 -2 -23 -8 -32 -21 -32 -26 0 -61 -37 -61 -65
l0 -25 435 0 435 0 0 29 c0 32 -30 61 -63 61 -15 0 -18 5 -13 24 5 19 0 29
-20 45 -22 17 -41 21 -100 21 -66 0 -74 2 -74 19 0 12 -11 23 -28 29 -41 14
-40 10 -34 628 2 172 3 182 22 187 27 7 26 48 -3 75 -48 45 -116 61 -183 41z
m110 -65 c15 -14 16 -62 16 -411 -1 -218 2 -398 5 -401 3 -3 5 -16 5 -29 0
-17 -6 -23 -21 -23 -19 0 -21 4 -16 34 4 24 1 39 -9 47 -12 9 -14 75 -14 399
0 336 3 400 16 400 1 0 10 -7 18 -16z m-64 -383 c0 -336 -2 -390 -15 -395 -10
-3 -15 -19 -15 -46 0 -25 -5 -40 -12 -40 -10 0 -12 88 -10 412 1 227 4 423 7
436 3 14 13 22 25 22 20 0 20 -8 20 -389z m28 -413 c7 -7 12 -25 12 -40 0 -23
-4 -28 -25 -28 -20 0 -25 5 -25 24 0 29 9 56 19 56 4 0 12 -5 19 -12z m132
-108 c0 -6 -55 -10 -146 -10 -94 0 -143 4 -139 10 4 6 63 10 146 10 86 0 139
-4 139 -10z m175 -65 c0 -20 -8 -20 -317 -23 -304 -2 -318 -1 -318 16 0 10 3
22 7 25 4 4 146 6 317 5 303 -3 311 -3 311 -23z m78 -73 c10 -10 14 -22 10
-25 -3 -4 -188 -7 -410 -7 -324 0 -403 3 -403 13 0 35 18 37 405 37 357 0 383
-1 398 -18z"/>
<path d="M2560 3415 c-8 -9 -10 -28 -6 -51 6 -30 -6 -70 -81 -259 -61 -155
-93 -225 -105 -228 -19 -6 -24 -32 -8 -42 6 -3 10 -15 10 -26 0 -33 67 -96
126 -119 82 -30 157 -27 232 11 53 26 67 39 97 90 39 68 43 85 18 92 -11 3
-29 33 -47 78 -16 41 -57 141 -93 223 -52 121 -62 155 -57 183 8 41 -8 63 -46
63 -15 0 -33 -7 -40 -15z m67 -21 c3 -8 -2 -23 -11 -32 -15 -15 -17 -15 -32 0
-21 21 -11 48 16 48 11 0 23 -7 27 -16z m-25 -211 l2 -108 5 109 6 108 88
-217 c48 -120 86 -219 84 -221 -2 -3 -85 -3 -185 -2 l-180 3 82 217 c44 120
84 218 89 218 4 0 8 -48 9 -107z m208 -381 c0 -4 -17 -25 -38 -45 -88 -86
-247 -89 -333 -7 -22 20 -39 42 -39 48 0 9 57 12 205 12 113 0 205 -4 205 -8z"/>
<path d="M3350 3415 c-8 -9 -10 -28 -6 -48 5 -26 -2 -52 -32 -118 -22 -46 -65
-148 -97 -226 -35 -86 -63 -143 -71 -143 -20 0 -17 -18 12 -77 30 -59 78 -97
150 -119 133 -40 265 15 321 133 24 51 25 68 1 68 -5 0 -25 38 -45 85 -19 47
-61 149 -94 227 -45 109 -57 150 -53 173 4 18 1 36 -6 45 -16 19 -64 19 -80 0z
m67 -21 c3 -8 -2 -23 -11 -32 -14 -15 -18 -15 -31 -1 -9 9 -13 23 -9 32 8 21
43 22 51 1z m-19 -259 c1 84 6 145 11 140 10 -12 161 -399 161 -414 0 -8 -62
-11 -190 -11 l-190 0 9 23 c9 22 167 400 179 427 4 8 9 -59 12 -150 l6 -165 2
150z m190 -329 c11 -11 -42 -66 -81 -85 -99 -48 -211 -36 -284 32 -24 22 -43
43 -43 48 0 4 24 10 53 12 60 5 348 -1 355 -7z"/>
<path d="M3950 3253 c-103 -79 -146 -144 -138 -207 3 -26 7 -22 48 42 25 38
51 78 57 88 32 49 -16 -48 -65 -131 -59 -100 -55 -115 21 -73 79 43 133 160
125 271 l-3 44 -45 -34z"/>
<path d="M2000 3236 c0 -51 31 -157 59 -203 22 -35 102 -86 126 -81 17 4 17 4
-60 136 -26 45 -46 85 -43 87 2 3 20 -22 38 -55 37 -67 80 -114 80 -89 0 48
-32 117 -72 155 -46 44 -111 94 -121 94 -4 0 -7 -20 -7 -44z"/>
<path d="M2025 2933 c23 -128 120 -243 205 -243 38 0 35 7 -50 108 -34 41 -60
76 -57 78 3 3 30 -23 62 -58 51 -57 56 -60 50 -33 -17 77 -95 149 -193 180
-22 6 -23 5 -17 -32z"/>
<path d="M3901 2939 c-33 -17 -72 -45 -86 -63 -26 -35 -59 -105 -52 -113 3 -2
21 16 41 41 21 24 49 52 64 62 26 16 26 15 -4 -17 -53 -57 -126 -163 -116
-167 6 -2 29 2 52 8 52 14 114 75 146 144 26 58 42 136 27 136 -5 0 -38 -14
-72 -31z"/>
<path d="M2070 2675 c0 -3 11 -27 24 -53 26 -52 101 -127 142 -142 28 -11 94
-13 118 -4 18 7 -9 33 -89 82 -27 18 -46 32 -42 32 11 0 76 -32 111 -55 29
-19 29 -19 18 1 -15 27 -59 70 -97 94 -42 26 -185 60 -185 45z"/>
<path d="M3834 2659 c-78 -24 -152 -74 -178 -119 l-20 -34 35 27 c32 24 98 57
116 57 4 0 -20 -16 -53 -36 -106 -64 -115 -84 -38 -84 59 0 103 19 148 66 32
33 86 120 86 139 0 9 -35 4 -96 -16z"/>
<path d="M2164 2419 c-9 -15 62 -85 111 -109 42 -20 124 -25 174 -11 23 6 23
7 -16 33 -22 15 -63 34 -89 43 l-49 15 45 -5 c25 -3 60 -15 79 -26 l34 -20
-15 23 c-31 47 -85 68 -180 68 -52 0 -90 -4 -94 -11z"/>
<path d="M3635 2412 c-22 -10 -46 -26 -54 -35 -16 -20 -18 -20 43 -2 27 8 61
15 75 14 17 0 8 -5 -24 -13 -53 -13 -86 -28 -122 -56 l-23 -18 23 -6 c12 -3
49 -6 83 -6 49 0 68 5 105 29 54 34 105 88 95 98 -4 5 -42 9 -84 11 -59 2 -86
-2 -117 -16z"/>
<path d="M2331 2241 l-44 -6 34 -33 c84 -83 201 -103 274 -46 20 15 20 15 1
30 -13 9 -46 14 -90 15 l-71 1 49 12 50 12 -41 12 c-42 12 -87 13 -162 3z"/>
<path d="M3511 2239 c-38 -12 -36 -18 11 -29 27 -7 22 -8 -33 -9 -41 -1 -72
-6 -85 -16 -19 -15 -19 -15 1 -30 29 -23 92 -37 128 -30 49 11 126 56 148 87
20 27 20 28 1 28 -10 0 -46 2 -78 5 -32 2 -74 0 -93 -6z"/>
</g>
</svg>
